<svg width="73" height="48" viewBox="0 0 73 48" fill="none" xmlns="http://www.w3.org/2000/svg">
<g clip-path="url(#clip0_62_812)">
<path d="M28.04 16.89L20.37 8.59002V9.72002C20.37 12.88 21.6 15.94 23.83 18.34L24.88 19.5C27.91 22.68 27.94 26.49 24.94 29.68L17.8 37.15V1.77002L3.27004 17.11C-1.11996 21.79 -1.08996 27.83 3.35004 32.49L11.02 40.79V39.66C11.02 36.5 9.79004 33.44 7.56004 31.04L6.51004 29.88C3.48004 26.7 3.45004 22.89 6.45004 19.7L13.59 12.23V47.6L28.12 32.27C32.51 27.59 32.48 21.55 28.04 16.89Z" fill="#CDDE00"/>
<path d="M11.2901 45.44C11.2901 46.59 10.5401 47.56 9.19009 47.56C7.84009 47.56 7.09009 46.59 7.09009 45.44C7.09009 44.29 7.85009 43.32 9.19009 43.32C10.5301 43.32 11.2901 44.28 11.2901 45.44ZM9.19009 47.3C10.3401 47.3 11.0001 46.47 11.0001 45.44C11.0001 44.41 10.3401 43.57 9.19009 43.57C8.04009 43.57 7.39009 44.4 7.39009 45.44C7.39009 46.48 8.04009 47.3 9.19009 47.3ZM9.41009 44.3H8.42009V46.53H8.69009V45.69H9.17009L9.90009 46.53H10.2001V46.48L9.50009 45.69C10.3801 45.58 10.3501 44.3 9.40009 44.3H9.41009ZM8.69009 44.57H9.40009C10.0301 44.57 10.0201 45.45 9.38009 45.45H8.68009V44.57H8.69009Z" fill="#CDDE00"/>
<path d="M65.8701 37.69C65.8701 36.17 65.8701 34.65 65.8701 33.13C65.8701 32.83 65.8501 32.53 65.8301 32.23C65.6501 30.28 64.2201 28.77 62.0901 28.28C61.1601 28.06 60.2101 28.02 59.2501 28.09C57.8201 28.19 56.4901 28.53 55.3201 29.32C54.4501 29.91 54.4801 30.84 55.1001 31.49C55.4401 31.25 55.7601 31 56.1101 30.79C57.2701 30.11 58.5801 29.9 59.9401 29.93C60.4401 29.94 60.9301 30.02 61.4001 30.19C62.4401 30.57 63.2401 31.74 63.1201 32.68C62.4201 32.73 61.7201 32.75 61.0201 32.82C59.6801 32.94 58.3601 33.18 57.1201 33.68C56.2301 34.04 55.4401 34.52 54.8701 35.24C54.1101 36.2 53.9301 37.27 54.1601 38.4C54.3801 39.51 55.0801 40.31 56.2101 40.8C57.1601 41.21 58.1601 41.32 59.2001 41.22C61.0201 41.06 62.3301 40.25 63.1201 38.77C63.1501 38.71 63.1701 38.67 63.2101 38.6C63.2301 38.6 63.2701 38.62 63.2901 38.63C63.2901 38.7 63.2001 41.03 65.7501 41.03C65.9501 41.03 66.1601 40.98 66.3501 40.96C66.2601 40.7 66.1701 40.47 66.1101 40.23C65.8901 39.4 65.8601 38.55 65.8601 37.7L65.8701 37.69ZM63.1201 36.56C62.9701 37.77 62.3201 38.72 60.9901 39.16C59.9001 39.52 58.8201 39.44 57.8201 38.89C56.6301 38.23 56.4001 36.73 57.3201 35.69C57.7301 35.23 58.2801 34.94 58.8801 34.73C59.7201 34.44 60.5901 34.31 61.4801 34.24C62.0401 34.2 62.5901 34.18 63.2001 34.15C63.1801 34.99 63.2201 35.78 63.1201 36.56Z" fill="black"/>
<path d="M44.2801 38.72V38.71C45.4701 37.39 50.0801 32.24 51.1801 30.98C51.4001 30.73 51.5801 30.44 51.7001 30.15C52.0001 29.44 51.8201 28.77 51.2701 28.35H42.0501C42.0501 28.35 42.0101 28.35 41.9901 28.35C40.9301 28.48 40.3201 29.54 40.8001 30.42C41.5101 30.18 42.2601 30.11 43.0101 30.11C43.2501 30.11 43.4901 30.11 43.7301 30.11H48.6501L48.5701 30.2C48.5001 30.28 48.4601 30.34 48.4101 30.39C48.3001 30.51 48.1901 30.63 48.0901 30.75V30.76C46.9001 32.08 42.2901 37.23 41.1901 38.49C40.9701 38.74 40.7901 39.03 40.6701 39.32C40.3701 40.03 40.5501 40.7 41.1001 41.12H50.3201C50.3201 41.12 50.3601 41.12 50.3801 41.12C51.4401 40.99 52.0501 39.93 51.5701 39.05C50.8601 39.29 50.1101 39.36 49.3601 39.36C49.1201 39.36 48.8801 39.36 48.6401 39.36H43.7201L43.8001 39.27C43.8701 39.19 43.9101 39.13 43.9601 39.08C44.0701 38.96 44.1801 38.84 44.2801 38.72Z" fill="black"/>
<path d="M71.48 30.06C71.48 27.84 69.07 28 68.28 28.12C68.74 29.2 68.76 30.31 68.76 31.43C68.76 32.44 68.76 37.78 68.76 39.25C68.76 41.47 71.17 41.31 71.96 41.19C71.5 40.11 71.48 39 71.48 37.88C71.48 36.87 71.48 31.53 71.48 30.06Z" fill="black"/>
<path d="M70.1201 26.69C71.0301 26.69 71.7601 25.95 71.7601 25.05C71.7601 24.15 71.0201 23.41 70.1201 23.41C69.2201 23.41 68.4801 24.15 68.4801 25.05C68.4801 25.95 69.2201 26.69 70.1201 26.69Z" fill="black"/>
<path d="M70.51 7.21005C71.4157 7.21005 72.15 6.4758 72.15 5.57005C72.15 4.66431 71.4157 3.93005 70.51 3.93005C69.6042 3.93005 68.87 4.66431 68.87 5.57005C68.87 6.4758 69.6042 7.21005 70.51 7.21005Z" fill="black"/>
<path d="M54.35 26.68C55.2557 26.68 55.99 25.9458 55.99 25.04C55.99 24.1343 55.2557 23.4 54.35 23.4C53.4442 23.4 52.71 24.1343 52.71 25.04C52.71 25.9458 53.4442 26.68 54.35 26.68Z" fill="black"/>
<path d="M50.23 23.4C49.32 23.4 48.59 24.14 48.59 25.04C48.59 25.94 49.33 26.68 50.23 26.68C51.13 26.68 51.87 25.94 51.87 25.04C51.87 24.14 51.13 23.4 50.23 23.4Z" fill="black"/>
<path d="M69.25 10.5201C69.25 11.6301 69.25 15.1901 69.25 17.1801C69.25 17.1801 69.22 17.7201 69.09 18.0501C68.82 18.7101 68.23 19.3401 67.53 19.5901C67.26 19.6901 66.98 19.7401 66.7 19.7801C66.6 19.7901 66.51 19.8201 66.41 19.8201C66 19.8601 65.59 19.8301 65.18 19.8401C65.06 20.7301 65.69 21.7101 66.74 21.6801C66.74 21.6801 66.75 21.6801 66.76 21.6801C67.32 21.6701 67.56 21.6301 68.09 21.5001C68.13 21.5001 68.17 21.4901 68.21 21.4801C70.33 20.9901 71.76 19.4901 71.95 17.5301L71.97 17.1801C71.97 15.1501 71.97 12.5301 71.97 11.8901C71.97 10.7801 71.98 9.67006 72.45 8.58006C71.66 8.46006 69.25 8.30006 69.25 10.5201Z" fill="black"/>
<path d="M62.62 18.9501C61.51 17.7001 56.91 12.5501 55.72 11.2201C55.61 11.0901 55.5 10.9701 55.4 10.8501C55.35 10.8001 55.31 10.7401 55.24 10.6601L55.16 10.5701H60.08C60.32 10.5701 60.56 10.5701 60.8 10.5701C61.55 10.5701 62.3 10.6501 63.01 10.8801C63.49 10.0001 62.88 8.94006 61.82 8.81006C61.8 8.81006 61.78 8.81006 61.76 8.81006H52.54C51.98 9.23006 51.8 9.90006 52.11 10.6101C52.24 10.9001 52.42 11.1901 52.63 11.4401C53.74 12.6901 58.34 17.8401 59.53 19.1701C59.64 19.3001 59.75 19.4201 59.85 19.5401C59.9 19.5901 59.94 19.6501 60.01 19.7301L60.09 19.8201H47.37C47.21 19.8201 47.05 19.8201 46.9 19.8201C46.4 19.8101 45.91 19.7301 45.44 19.5601C44.71 19.2901 44.1 18.6301 43.84 17.9301C43.74 17.6001 43.72 17.1501 43.72 17.1501C43.72 15.1601 43.72 14.2801 43.72 13.1701C43.72 10.9501 41.31 11.1101 40.52 11.2301C40.98 12.3101 41 13.4201 41 14.5401C41 15.1901 41 15.1201 41 17.1601L41.02 17.5201C41.2 19.4701 42.63 20.9801 44.76 21.4701C45.62 21.6701 46.5 21.7201 47.38 21.6701H62.73C63.29 21.2501 63.47 20.5001 63.16 19.8001C63.03 19.5101 62.85 19.2201 62.64 18.9701L62.62 18.9501Z" fill="black"/>
<path d="M47.03 10.5301C45.92 10.5301 45.02 9.63007 45.02 8.52007C45.02 7.41007 45.92 6.51007 47.03 6.51007C48.14 6.51007 49.04 7.41007 49.04 8.52007C49.04 9.63007 48.14 10.5301 47.03 10.5301ZM47.03 7.42007C46.42 7.42007 45.93 7.91007 45.93 8.52007C45.93 9.13007 46.42 9.62007 47.03 9.62007C47.64 9.62007 48.13 9.13007 48.13 8.52007C48.13 7.91007 47.64 7.42007 47.03 7.42007Z" fill="black"/>
<path d="M70.89 0.800049L65.16 3.67005V4.72005L70.89 1.85005V0.800049Z" fill="black"/>
</g>
<defs>
<clipPath id="clip0_62_812">
<rect width="72.45" height="46.8" fill="white" transform="translate(0 0.800049)"/>
</clipPath>
</defs>
</svg>
